<svg xmlns="http://www.w3.org/2000/svg" width="120.7" height="20.8" viewBox="0 0 1207 208">
  <defs>
    <style>
      .cls-1 {
        fill: #fff;
        fill-rule: evenodd;
      }
    </style>
  </defs>
  <path id="Фигура_318_1" data-name="Фигура 318 1" class="cls-1" d="M336.769,0.283c37.325-1.215,41.469,39.245,13.292,47.32-19.836,5.684-37.147-12.454-31.369-30.838C321.66,7.322,328.387,4.468,336.769.283ZM77.84,7.2l54.231,0.532q37.215,98.617,74.436,197.253H152.275L103.361,72.592h-0.532v1.063L53.914,204.98H0.746Zm91.449,0h53.7q37.479,98.883,74.967,197.785l-54.232-.531ZM677.576,7.727h42.535V204.98l-42.535-.531-0.531-7.444c-47.422,29.351-115.214-6.851-104.742-66.992,8.938-51.328,53.96-76.618,105.273-49.978V7.727ZM546.251,204.98l-43.066-.531c0.319-20.748,3.533-73.5-3.19-86.664-9.21-18.032-39.547-14.108-49.978,0v87.2H407.482V71h42.535V82.162c7.023-5.126,13.969-10.462,23.394-13.292,13.4-4.024,29.978-1.3,40.408,3.19C555.437,89.985,546.6,146.9,546.251,204.98Zm659.819,0.532L1163,204.98c0.32-20.747,3.53-73.5-3.19-86.664-9.21-18.032-39.55-14.107-49.98,0v87.2H1067.3V71.529h42.53V82.694c7.03-5.126,13.97-10.462,23.4-13.292,13.4-4.024,29.98-1.3,40.4,3.19C1215.25,90.517,1206.42,147.428,1206.07,205.512ZM998.18,71.529h42.53V205.512H998.18v-9.038c-48.107,30.708-115.982-6.288-105.273-67.524,5.954-34.04,34.748-68.938,79.221-59.548,10.382,2.192,17.732,7.133,26.052,10.634V71.529ZM364.416,70.465V204.98c-6.988.131-39.024,1.588-42-1.063V70.465h42Zm383.342,1.063,51.573,0.532,22.331,68.055,1.063-.531q10.633-34.025,21.268-68.056H894.5V72.06L845.056,204.98l-46.788.532Zm220.116,30.838c-5.9,2.16-11.756,1.414-16.482,4.253-16.472,9.9-22.819,38.1-9.038,55.827,12.754,16.408,44.487,13.359,55.826-2.127V116.19C985.233,106.418,986.71,107.327,967.874,102.366Zm-325.92.532c-12.062,5.484-20.4,8.557-25.521,20.735-17.733,42.146,38.613,67.526,61.143,36.686V116.19C667.513,107.783,661.546,102.766,641.954,102.9Z"/>
</svg>
